<svg class="icon icon-accordion icon-perfume" viewBox="0 0 20 20"><path fill-rule="evenodd" d="M14.34 4.01c-.35-.27-1.68-.25-3-.23l-1.11.02-1.09-.02C7.9 3.75 6.61 3.72 6.07 4 3.48 5.4 1.8 8.5 1.8 11.57a8.1 8.1 0 0 0 4.5 7.23 8.6 8.6 0 0 0 3.93.94 8.6 8.6 0 0 0 3.93-.94 8.1 8.1 0 0 0 4.5-7.23c0-3.06-1.73-6.17-4.32-7.57m-.54.85-.2-.04a8 8 0 0 0-.9-.05l-1.32.01-1.15.02-1.11-.02h-.1l-1.16-.02a8 8 0 0 0-.93.05l-.3.05-.1.03C4.33 6.1 2.8 8.84 2.8 11.6a7.1 7.1 0 0 0 3.96 6.33 7.6 7.6 0 0 0 3.47.82q1.9-.02 3.47-.82a7.1 7.1 0 0 0 3.96-6.34 7.8 7.8 0 0 0-3.8-6.69zm-7.26.03"/><path fill-rule="evenodd" d="M10.72 1.19h-.98a1 1 0 0 0-1 1v1.56h2.98V2.2a1 1 0 0 0-1-1m-.98-1a2 2 0 0 0-2 2v2.56h4.98V2.2a2 2 0 0 0-2-2z"/><path d="M13.46 8.96h.17l.05.01h.06l.05.01h.05l.06.02h.05l.05.02h.06l.05.02.05.01.05.02.05.01.05.02.05.01.05.02.05.02.05.01.05.02.05.02.04.02.05.02.04.02.05.02.05.02.04.02.05.02.04.02.04.02.05.02.04.02.04.03.04.02.05.02.03.02.13.06.12.06.03.02.04.02.04.02.04.02.04.02.03.01.04.02.04.02.03.02.04.01.03.02.04.01.03.01.04.02.03.01.03.01.03.01.04.01.03.01.03.01.03.01.03.01h.03l.03.01.02.01h.03l.03.01h.05l.03.01h.34l.03-.01h.03l.02-.01h.03l.03-.01.03-.01h.03l.03-.02h.03l.03-.02h.03l.04-.02.03-.01.03-.01.04-.02.03-.01.03-.02.04-.01.03-.02.04-.01.04-.02.03-.02.04-.01.04-.02.03-.02.04-.02.04-.02.04-.02.04-.02.04-.02.63.9-.04.01-.05.02-.04.03-.04.02-.04.02-.05.02-.04.02-.05.02-.04.02-.05.02-.04.02-.05.03-.04.02-.05.02-.05.02-.05.01-.04.02-.05.02-.05.02-.05.01-.05.02-.05.02-.05.01-.05.01-.06.02h-.05l-.05.02-.05.01-.06.01-.05.01h-.06l-.05.01h-.05l-.06.01h-.11l-.05.01h-.23l-.05-.01h-.05l-.06-.01-.05-.01-.06-.01-.05-.01-.05-.01-.05-.01-.06-.01-.05-.02-.05-.01-.05-.02-.05-.01-.05-.02-.05-.01-.05-.02-.05-.02-.04-.02-.05-.02-.05-.01-.04-.02-.05-.02-.05-.02-.04-.02-.05-.02-.04-.03-.04-.02-.05-.02-.04-.02-.04-.02-.04-.02-.05-.02-.04-.02-.08-.05-.04-.02-.12-.06-.04-.02-.04-.02-.04-.02-.03-.01-.04-.02-.04-.02-.04-.02-.03-.02-.04-.01-.04-.02-.03-.01-.04-.02-.03-.01-.03-.02-.04-.01-.03-.01-.03-.01-.03-.01-.04-.02h-.03l-.03-.01-.03-.01-.03-.01h-.03l-.02-.01-.03-.01h-.03l-.03-.01h-.05l-.03-.01h-.08l-.02-.01h-.19l-.02.01h-.03l-.03.01h-.02l-.03.01h-.03l-.03.02h-.03l-.03.01-.03.01-.03.01-.03.01-.03.01-.04.01-.03.02h-.03l-.04.02-.03.02-.04.01-.03.02-.04.01-.03.02-.04.01-.03.02-.04.02-.04.02-.04.02-.04.02-.03.02-.04.02-.04.02-.16.08-.05.02-.04.02-.04.02-.04.03-.05.02-.04.02-.04.02-.05.02-.04.02-.05.02-.04.02-.05.02-.05.02-.04.02-.05.02-.05.02-.05.02-.04.02-.05.01-.05.02-.05.02-.05.01-.05.02-.06.01-.05.02h-.05l-.05.02h-.06l-.05.02h-.05l-.06.02h-.11l-.05.01h-.5l-.05-.01-.05-.01L9.8 11l-.05-.01-.05-.01-.06-.01-.05-.01-.05-.02-.05-.01-.05-.02-.05-.01-.05-.02-.05-.01-.05-.02-.05-.02-.05-.02-.04-.02-.05-.02-.05-.01-.04-.02-.05-.02-.04-.02-.05-.02-.04-.03-.05-.02-.04-.02-.04-.02-.05-.02-.04-.02-.04-.02-.04-.02-.24-.13-.04-.02-.04-.02-.04-.02-.04-.01-.04-.02-.03-.02-.04-.02-.04-.02-.03-.01-.04-.02-.03-.01-.04-.02-.03-.01-.04-.02-.03-.01-.03-.01-.04-.01-.03-.01-.03-.02h-.03l-.03-.02h-.03l-.03-.01H7.4l-.03-.02h-.05l-.03-.01h-.03L7.24 10h-.31l-.03.01h-.03l-.02.01h-.03l-.03.01h-.03l-.03.02H6.7l-.03.01-.03.01-.03.01-.03.01-.03.01-.03.01-.03.02h-.04l-.03.02-.04.02-.03.01-.04.02-.03.01-.04.02-.03.01-.04.02-.04.02-.03.02-.04.02-.04.02-.04.01-.04.03-.28.14-.05.02-.04.02-.04.02-.04.03-.05.02-.04.02-.05.02-.04.02-.05.02-.04.02-.05.02-.05.02-.04.02-.05.02-.05.02-.05.02-.05.01-.05.02-.05.02-.05.01-.05.02-.05.01-.05.01-.05.02h-.06l-.05.02h-.05l-.06.02h-.05l-.05.01h-.06l-.05.01h-.5l-.05-.01-.06-.01h-.05l-.05-.02h-.06l-.05-.02-.05-.01-.05-.02-.05-.01-.05-.01-.06-.02-.05-.02-.05-.01-.04-.02-.05-.02-.05-.01-.05-.02-.04-.02-.05-.02-.05-.02-.04-.02-.05-.02-.04-.02-.05-.02-.04-.02-.04-.03-.05-.02-.04-.02-.04-.02-.04-.02-.04-.02-.05-.02-.08-.04.63-.9.08.05.04.02.04.02.04.02.04.02.04.01.03.02.04.02.04.02.03.02.04.01.04.02.03.01.04.02.03.01.03.02h.04l.03.02.03.01.03.02h.04l.03.02h.03l.03.01.03.01h.03l.02.02h.06l.03.01h.05l.03.01h.34l.03-.01h.03l.02-.01h.03l.03-.01.03-.01.03-.01.03-.01.03-.01.03-.01.04-.01.03-.01.03-.01.03-.02.04-.01.03-.01.04-.02.03-.01.04-.02.03-.02.04-.01.04-.02.03-.02.04-.02.04-.02.04-.01.03-.02.04-.02.24-.13.05-.02.04-.02.04-.02.05-.02.04-.02.04-.03.05-.02.04-.02.05-.02.04-.02.05-.02.04-.02.05-.02.05-.02.05-.02.04-.02.05-.01.05-.02.05-.02.05-.01.05-.02.05-.02.05-.01.05-.01.06-.02h.05L6.55 9h.06l.05-.02h.05l.06-.01h.05l.06-.01h.49l.06.01.05.01h.05l.06.02h.05l.05.02.06.01.05.02h.05l.05.02.05.02.05.01.05.02.05.02.05.02.04.01.05.02.05.02.04.02.05.02.05.02.04.02.05.02.04.02.04.02.05.02.04.03.04.02.05.02.04.02.04.02.24.12.04.02.04.02.04.02.04.02.04.02.03.02.04.02.04.01.03.02.04.02.03.01.04.02.03.01.04.02h.03l.03.02.04.01.03.01.03.01.03.01.03.01.03.01.03.01h.03l.03.01.03.01h.03l.02.01h.06l.02.01h.35l.02-.01h.03l.03-.01h.03l.03-.01.03-.01.03-.01.03-.01h.03l.03-.02h.03l.03-.02.03-.01.04-.02h.03l.04-.02.03-.02.03-.01.04-.02.04-.01.03-.02.04-.02.04-.02.03-.01.04-.02.04-.02.04-.02.04-.02.28-.15.04-.02.05-.02.04-.02.04-.02.05-.02.04-.03.04-.02.05-.02.04-.02.05-.02.05-.02.04-.02.05-.02.05-.02.05-.01.04-.02.05-.02.05-.02.05-.01.05-.02.05-.01.06-.02.05-.01.05-.02h.05l.06-.02h.05l.05-.02h.06l.05-.01h.06l.05-.01h.17z"/><path d="M10.2 3.76a.5.5 0 0 1 .5.5v10.2a.5.5 0 1 1-1 0V4.26a.5.5 0 0 1 .5-.5"/></svg>