<svg class="icon icon-accordion icon-truck" viewBox="0 0 20 20"><path d="M0 3.75c0-.28.22-.5.5-.5h10.15a.5.5 0 0 1 .5.5v9.91l-.6 1H7.22v-1h2.93v-9.4H1v9.4h1.68v1H.5a.5.5 0 0 1-.5-.5zm19 4.33-7.85-1.97V5.07l8.47 2.14a.5.5 0 0 1 .38.48v6.47a.5.5 0 0 1-.5.5h-2.2v-1H19zm-7.85 5.58h2.2v1h-2.8z"/><path d="M7.71 14.19a2.56 2.56 0 0 1-2.56 2.56 2.56 2.56 0 0 1-2.56-2.56 2.56 2.56 0 0 1 2.56-2.57 2.56 2.56 0 0 1 2.56 2.57m-2.56 1.56a1.56 1.56 0 0 0 1.56-1.57 1.56 1.56 0 0 0-1.56-1.55 1.56 1.56 0 0 0-1.56 1.55 1.56 1.56 0 0 0 1.56 1.57m12.37-1.57a2.56 2.56 0 0 1-2.56 2.57 2.56 2.56 0 0 1-2.56-2.56 2.56 2.56 0 0 1 2.56-2.57 2.56 2.56 0 0 1 2.56 2.57m-2.56 1.56a1.56 1.56 0 0 0 1.56-1.57 1.56 1.56 0 0 0-1.56-1.55 1.56 1.56 0 0 0-1.56 1.55 1.56 1.56 0 0 0 1.56 1.57"/></svg>