<svg class="icon icon-accordion icon-pepper" viewBox="0 0 20 20"><path fill-rule="evenodd" d="M13.87.57a.5.5 0 0 1 .5-.5h1.8a.5.5 0 0 1 .5.5V2a4 4 0 0 1 .57.33q.31.24.57.5c.58.6.87 1.24.77 1.77a.8.8 0 0 1-.5.63 13.3 13.3 0 0 1-3.06 8.15c-1.92 2.32-4.66 4.13-8.05 5.71a8 8 0 0 1-3.3.84c-.93 0-1.91-.25-2.3-1.09q-.32-.66-.1-1.3c.14-.39.44-.68.76-.93q.36-.28.83-.6l.33-.22q.68-.44 1.47-1.12l.81-.7c.93-.8 1.92-1.64 2.8-2.57a9 9 0 0 0 2.39-3.93q.05-.25.09-.65v-.1l.09-.75a4 4 0 0 1 .34-1.14l-.08-.1c-.22-.27-.2-.64-.12-.94.08-.33.3-.6.54-.82q.38-.34.87-.58a5 5 0 0 1 1.48-.52zm-1.46 4.3.27-.13c.06-.02.21-.03.42.07q.31.16.43.37c.35.7 1.05.83 1.59.76q.41-.05.75-.24c.2-.1.42-.27.55-.5.02-.04.13-.14.31-.18a.6.6 0 0 1 .36.01 12.4 12.4 0 0 1-2.83 7.72c-1.8 2.15-4.4 3.89-7.71 5.44a7 7 0 0 1-2.89.74c-.86 0-1.26-.24-1.37-.5-.14-.3-.12-.44-.09-.54.05-.13.17-.28.45-.5q.3-.23.73-.52l.38-.26q.7-.46 1.55-1.19l.79-.67c.93-.8 1.98-1.69 2.9-2.66a10 10 0 0 0 2.63-4.39q.1-.39.11-.8l.01-.1q.03-.35.08-.68c.07-.5.21-.9.51-1.21zm5.12-.73q-.09-.23-.43-.6a3 3 0 0 0-.44-.4c-.14-.1-.34-.2-.7-.36a.5.5 0 0 1-.3-.46V1.07h-.79v1.25a.5.5 0 0 1-.5.5 3.8 3.8 0 0 0-2.4 1.14l.3-.14c.42-.17.88-.08 1.24.07.36.17.72.45.91.84q.13.27.57.22.22-.04.4-.13l.16-.11c.2-.34.57-.57.94-.66.32-.08.7-.08 1.04.09"/></svg>