<svg class="icon icon-accordion icon-plant" viewBox="0 0 20 20"><path d="M15.96 5.17a.5.5 0 0 1 .1.7l-4.83 6.23a3.5 3.5 0 0 0-.73 2.14v3.49a.5.5 0 0 1-1 0v-3.49a4.5 4.5 0 0 1 .94-2.75l4.82-6.24a.5.5 0 0 1 .7-.09"/><path d="M4.14 9.11a.5.5 0 0 0 .01.7l4.26 4.05A3.5 3.5 0 0 1 9.5 16.4v3.1a.5.5 0 0 0 1 0v-3.1a4.5 4.5 0 0 0-1.4-3.26L4.84 9.09a.5.5 0 0 0-.7.02"/><path fill-rule="evenodd" d="M18.38 1.54c.05.75.1 1.79.03 2.87-.1 1.46-.38 2.85-.95 3.74a4.6 4.6 0 0 1-2.75 2c-1.02.25-1.86.08-2.25-.17-.84-.54-1.8-2.72-.3-5.03.56-.85 1.79-1.65 3.25-2.32a24 24 0 0 1 2.97-1.1M18.73.4a.47.47 0 0 1 .59.4c.15 1.5.42 5.67-1.03 7.89-1.77 2.74-5 3.02-6.37 2.13s-2.35-3.7-.6-6.41C12.78 2.18 17.2.8 18.74.4M1.16 6.24c.09.56.22 1.27.43 1.99.3 1.06.73 1.98 1.25 2.5.7.7 1.54.99 2.27 1.01.78.03 1.33-.23 1.53-.42.46-.46.85-2.13-.6-3.58a6 6 0 0 0-2.63-1.16 18 18 0 0 0-2.25-.34M.57 5.19a.46.46 0 0 0-.49.51c.15 1.25.64 4.32 2.06 5.74 1.8 1.8 4.3 1.49 5.21.58.9-.9 1.18-3.2-.6-4.99C5.35 5.61 1.9 5.27.58 5.2"/></svg>