<svg class="icon icon-accordion icon-washing" viewBox="0 0 20 20"><path d="M.38 4.26a.5.5 0 0 1 .62.37l2.53 10.02q.03.1.13.1h12.68a.13.13 0 0 0 .13-.1L19 4.63a.5.5 0 0 1 .98.24L17.45 14.9c-.13.5-.57.85-1.1.85H3.66c-.53 0-.98-.35-1.1-.85L0 4.87a.5.5 0 0 1 .37-.6"/><path d="M6.76 7.36c-.65-.16-1.36 0-2 .36h-.02l-.53.3-.37.21a4 4 0 0 1-1.11.45h-.01a2.4 2.4 0 0 1-1.6-.34l.48-.88c.38.2.66.28.93.24q.4-.1.82-.34l.3-.17.63-.36A3.8 3.8 0 0 1 7 6.4c.7.16 1.31.52 1.84.83l.28.16q.61.38 1.03.33c.42-.1.8-.31 1.27-.58l.04-.03c.43-.25.93-.54 1.5-.68a3.8 3.8 0 0 1 2.86.44q.3.15.57.32l.3.17q.4.24.8.34.25.07.58-.04l.43-.2.48.88a4 4 0 0 1-.58.26c-.34.12-.75.19-1.18.07a4 4 0 0 1-1.02-.44l-.36-.2-.49-.28h-.01a2.8 2.8 0 0 0-2.1-.35h-.02c-.44.1-.82.33-1.29.6-.45.26-.97.57-1.58.7h-.02c-.69.12-1.3-.21-1.7-.43h-.01l-.32-.2c-.53-.3-1-.57-1.53-.7z"/></svg>