<svg class="icon icon-accordion icon-stopwatch" viewBox="0 0 20 20"><path d="M18.7 11.4a8.47 8.47 0 1 1-16.94 0 8.47 8.47 0 0 1 16.94 0m-8.47 7.47a7.47 7.47 0 1 0 0-14.95 7.47 7.47 0 0 0 0 14.95"/><path fill-rule="evenodd" d="M10.72 1.78h-.98a1 1 0 0 0-1 1v.15h2.98v-.15a1 1 0 0 0-1-1m-.98-1a2 2 0 0 0-2 2v1.15h4.98V2.78a2 2 0 0 0-2-2z"/><path d="M8.98 11.4a1.25 1.25 0 1 1 2.5 0 1.25 1.25 0 0 1-2.5 0"/><path d="M9.73 11.4a.5.5 0 0 1 .5-.5h4.98a.5.5 0 1 1 0 1h-4.98a.5.5 0 0 1-.5-.5m.5-5.48a.5.5 0 0 1 .5.5V8.9a.5.5 0 1 1-1 0V6.4a.5.5 0 0 1 .5-.5m3.72 1.4a.5.5 0 0 1 0 .7L12.2 9.78a.5.5 0 0 1-.7-.71l1.76-1.76a.5.5 0 0 1 .7 0"/></svg>