<svg class="icon icon-accordion icon-shirt" viewBox="0 0 20 20"><path d="M5.82 2.1a.5.5 0 0 0-.38.15l-4.23 4.4a.6.6 0 0 0-.16.4q0 .25.16.4l2.12 2.2a.5.5 0 0 0 .38.16q.22 0 .38-.15l.61-.63a.5.5 0 0 1 .58-.11.6.6 0 0 1 .32.52l-.29 7.91a.54.54 0 0 0 .53.54h.35l7.99.01a.54.54 0 0 0 .53-.53l-.3-7.93a.6.6 0 0 1 .3-.52.5.5 0 0 1 .59.11l.6.62q.19.16.39.16.22 0 .38-.15l2.12-2.21a.6.6 0 0 0 .16-.4.6.6 0 0 0-.16-.39l-4.23-4.4a.6.6 0 0 0-.38-.16h-1.54c-.1 0-.31.1-.45.24v.01a3 3 0 0 1-2.2.94q-1.26 0-2.24-1v-.01a.5.5 0 0 0-.4-.18zM4.7 1.48A1.5 1.5 0 0 1 5.82 1h1.54c.45 0 .86.2 1.15.52a1.97 1.97 0 0 0 2.92.06c.27-.29.73-.58 1.21-.58h1.54q.66.02 1.11.47h.01l4.24 4.42c.3.31.46.73.46 1.16 0 .45-.18.86-.45 1.16h-.01l-2.13 2.22a1.55 1.55 0 0 1-1.9.26l.25 6.64v.03c0 .9-.7 1.64-1.58 1.64l-8-.01h-.34c-.87 0-1.58-.74-1.58-1.65v-.02l.24-6.62a1.5 1.5 0 0 1-.79.21q-.63-.01-1.11-.47h-.01L.46 8.21A1.7 1.7 0 0 1 0 7.05C0 6.6.18 6.2.45 5.9l.01-.01z"/></svg>