<svg class="icon icon-accordion icon-shoe" viewBox="0 0 20 20"><path d="M12.82 4.03h-.02a.53.53 0 0 0-.52.44 8 8 0 0 1-.81 2.32 5 5 0 0 1-3.65 2.7c-1.98.32-3.7.67-4.93 1.27q-.9.44-1.36 1.06-.46.59-.47 1.54v2.1c0 .24.19.45.43.5H18.4a.53.53 0 0 0 .53-.52V5.23a.5.5 0 0 0-.47-.51zM2.12 17H1.6C.71 17 0 16.3 0 15.45v-2.1q0-1.25.67-2.13a5 5 0 0 1 1.74-1.38c1.4-.68 3.27-1.05 5.23-1.36a4 4 0 0 0 2.89-2.17 7 7 0 0 0 .69-1.92v-.05A1.6 1.6 0 0 1 12.8 3h.01l.21.02 5.58.68c.8.09 1.4.75 1.4 1.53v10.21c0 .85-.71 1.55-1.6 1.55z"/><path d="M18.94 14H1.06v-.52h17.88v.25z"/></svg>