<svg class="icon icon-accordion icon-chat-bubble" viewBox="0 0 20 20"><path d="M5.8 10.24a1 1 0 1 1 2 0 1 1 0 0 1-2 0m3.43 0a1 1 0 1 1 2 0 1 1 0 0 1-2 0m3.43 0a1 1 0 1 1 2 0 1 1 0 0 1-2 0"/><path fill-rule="evenodd" d="M16.65 17.2h-.01l-.77-.42c-.64-.37-1.26-.72-1.44-.6a7.47 7.47 0 1 1 2.05-2.08c-.14.2.19.84.53 1.51q.23.44.42.85v.01c.2.45.3.81.14.95-.13.13-.5 0-.92-.22m1.6.94c-.37.37-.85.35-1.04.32a3 3 0 0 1-.62-.18 11 11 0 0 1-1.08-.56l-.14-.07q-.43-.26-.74-.41a8.47 8.47 0 1 1 2.88-2.9v.02l.39.8.08.16c.18.35.4.77.52 1.14q.1.28.14.67c.01.23-.02.67-.38 1.01"/></svg>