<svg class="icon icon-accordion icon-lipstick" viewBox="0 0 20 20"><path d="M5.76 9.02a1.03 1.03 0 0 1 1.43 0l4.17 4.07a.97.97 0 0 1 0 1.4L7.1 18.62a2.06 2.06 0 0 1-2.86 0L1.5 15.96a1.94 1.94 0 0 1 0-2.8zm4.88 4.77L6.47 9.7l-4.26 4.15a.97.97 0 0 0 0 1.4l2.74 2.67a1.03 1.03 0 0 0 1.43 0z"/><path d="m9.73 6.74 3.97 3.87-3.16 3.08L6.57 9.8zm0 1.4L8 9.8l2.54 2.48 1.73-1.68z"/><path d="M15.51 1.1a1.03 1.03 0 0 1 1.44 0l.75.73a3.4 3.4 0 0 1 0 4.89l-4.72 4.6-3.97-3.89zm1.47 1.43-.75-.74-5.79 5.64 2.54 2.49 4-3.9a2.43 2.43 0 0 0 0-3.5"/></svg>