<svg class="icon icon-accordion icon-recycle" viewBox="0 0 20 20"><path d="M10.7.55h.87c1.1-.02 1.85.78 2.14 1.28l1.68 2.8.78-.4a.5.5 0 0 1 .7.6l-1.34 4.02a.5.5 0 0 1-.58.33l-4.36-.94a.5.5 0 0 1-.16-.91l.92-.56-.86-1.42-1.32 2.29a.5.5 0 0 1-.68.19L5.46 6.15a.5.5 0 0 1-.18-.7c.48-.77 1.37-2.3 1.95-3.3q.43-.77.9-1.14A2 2 0 0 1 9.14.57c.33-.02.94-.02 1.56-.02m.21 3.59 1.54 2.54a.5.5 0 0 1-.17.69l-.27.16 2.7.58.81-2.42-.1.05a.5.5 0 0 1-.65-.18l-1.93-3.22c-.2-.35-.67-.8-1.27-.8l-.95.01c-.57 0-1.1 0-1.38.02a1 1 0 0 0-.5.22l-.08.07c.74.31 1.67 1 2.26 2.28M8.06 2.7 6.4 5.53 8.55 6.7l1.37-2.36A3.3 3.3 0 0 0 8.06 2.7M18.9 16.36l-.44.74a2.5 2.5 0 0 1-2.2 1.19L13 18.3l-.04.88a.5.5 0 0 1-.88.3l-2.77-3.2a.5.5 0 0 1 0-.67l3.04-3.27a.5.5 0 0 1 .86.33l.02 1.07 1.65-.02-1.29-2.3a.5.5 0 0 1 .18-.68L16.75 9a.5.5 0 0 1 .7.2l1.85 3.36q.43.76.52 1.35a2 2 0 0 1-.15 1.1c-.14.3-.46.83-.77 1.36m-3.2-1.64-2.97.02a.5.5 0 0 1-.5-.5v-.3l-1.89 2.02 1.67 1.93v-.11a.5.5 0 0 1 .5-.48l3.76-.01c.4 0 1.03-.18 1.32-.69l.49-.82.68-1.2a1 1 0 0 0 .07-.54l-.02-.1a4.5 4.5 0 0 1-3.11.78M18.4 13l-1.6-2.87-2.1 1.24 1.33 2.38c1.18.06 2-.42 2.37-.75M1.16 15.73l-.43-.75a2.5 2.5 0 0 1 .07-2.5l1.62-2.83-.74-.48a.5.5 0 0 1 .18-.9l4.17-.81a.5.5 0 0 1 .57.34l1.32 4.26a.5.5 0 0 1-.72.59l-.94-.52-.81 1.44 2.64.03a.5.5 0 0 1 .5.5l.02 3.46a.5.5 0 0 1-.52.5c-.91-.04-2.68-.06-3.84-.07q-.87-.01-1.42-.23a2 2 0 0 1-.89-.68c-.18-.27-.48-.81-.78-1.34m3.02-1.96 1.46-2.58a.5.5 0 0 1 .68-.19l.27.15-.81-2.63-2.5.48.08.05a.5.5 0 0 1 .16.67L1.66 13c-.2.35-.36.98-.07 1.5l.48.82c.27.5.53.95.7 1.2a1 1 0 0 0 .43.32l.1.04c-.1-.8.05-1.95.87-3.09m.15 3.2 3.28.06-.02-2.45-2.73-.03A3.3 3.3 0 0 0 4.32 17"/></svg>