<svg class="icon icon-instagram" viewBox="0 0 20 20"><path fill="currentColor" fill-rule="evenodd" d="M13.23 3.5c-.84-.05-1.1-.05-3.23-.05-2.14 0-2.39 0-3.24.05-.77.03-1.2.17-1.48.27a2.4 2.4 0 0 0-.92.6 2.5 2.5 0 0 0-.6.92c-.1.28-.24.7-.27 1.49-.05.84-.05 1.09-.05 3.23s.01 2.39.05 3.22q0 .77.27 1.5c.15.36.32.64.6.91.29.28.54.46.92.6q.73.27 1.48.28c.85.04 1.1.04 3.24.04s2.39 0 3.23-.04c.78-.04 1.2-.17 1.49-.28a2.6 2.6 0 0 0 1.52-1.52q.27-.72.27-1.49c.04-.84.05-1.1.05-3.23s-.01-2.39-.06-3.22a4 4 0 0 0-.27-1.5 2.4 2.4 0 0 0-.6-.91 3 3 0 0 0-.91-.6c-.29-.11-.7-.24-1.5-.28M6.7 2.04C7.55 2 7.83 2 10 2a63 63 0 0 1 3.3.04q1 .02 1.94.37a4 4 0 0 1 1.42.93q.61.6.93 1.41.35.94.36 1.94c.05.86.05 1.12.05 3.3s-.01 2.45-.05 3.3a6 6 0 0 1-.37 1.94c-.2.53-.47.98-.92 1.42a4 4 0 0 1-1.41.93c-.51.19-1.1.33-1.95.37S12.18 18 10 18s-2.44 0-3.3-.05a6 6 0 0 1-1.94-.36 4 4 0 0 1-1.42-.93 4 4 0 0 1-.93-1.42 6 6 0 0 1-.36-1.94C2 12.45 2 12.17 2 10s0-2.43.06-3.3a5 5 0 0 1 .36-1.94 4 4 0 0 1 .92-1.41 4 4 0 0 1 1.42-.93c.5-.19 1.09-.33 1.94-.37Zm.42 4.8a4.1 4.1 0 1 1 5.8 5.81 4.1 4.1 0 0 1-5.8-5.8m1.89 5.37a2.67 2.67 0 1 0 2.04-4.93A2.67 2.67 0 0 0 9 12.23m5.92-5.94a.96.96 0 1 1-1.36-1.36.96.96 0 0 1 1.36 1.36" clip-rule="evenodd"/></svg>