<svg class="icon icon-accordion icon-leaf" viewBox="0 0 20 20"><path d="M18.63.09c.3.05.63.16.87.4.25.23.36.57.42.87q.08.46.08.97a14 14 0 0 1-.1 1.44l-.01.1v.01a67 67 0 0 1-.63 4.28 39 39 0 0 1-1.22 4.96c-.5 1.5-1.2 3.11-2.25 4.16A9.25 9.25 0 1 1 2.73 4.2c1.05-1.05 2.65-1.75 4.15-2.25 1.58-.52 3.33-.92 4.95-1.22A66 66 0 0 1 16.11.1h.04a14 14 0 0 1 1.52-.1q.48 0 .96.09m-2.4 1.01c-1.12.13-2.62.33-4.21.63-1.6.29-3.3.68-4.82 1.18a10 10 0 0 0-3.75 2 8.23 8.23 0 1 0 11.63 11.64c.86-.86 1.51-2.28 2-3.75.5-1.51.89-3.23 1.18-4.82a66 66 0 0 0 .64-4.33c.03-.31.09-.82.09-1.33q0-.44-.06-.76-.08-.33-.13-.35-.03-.06-.37-.13a4 4 0 0 0-.77-.07 13 13 0 0 0-1.41.09z"/><path d="M19.43.5a.5.5 0 0 1 0 .72L.86 19.62a.5.5 0 1 1-.71-.72L18.71.5a.5.5 0 0 1 .72 0"/><path d="M5.62 2.48h.5v11.19H17.4v.5H5.62z"/><path d="M10.19 1.19h.5v7.96h8.1v.5h-8.6z"/></svg>