<svg fill="none" class="icon icon-plus" viewBox="0 0 19 19"><path fill="currentColor" fill-rule="evenodd" d="M4.67 7.94a.5.5 0 0 1 .5-.5l5.53-.02a.5.5 0 1 1 0 1l-5.53.02a.5.5 0 0 1-.5-.5" clip-rule="evenodd"/><path fill="currentColor" fill-rule="evenodd" d="M7.93 4.67a.5.5 0 0 1 .5.5l.01 5.53a.5.5 0 1 1-1 0l-.01-5.53a.5.5 0 0 1 .5-.5" clip-rule="evenodd"/><path fill="currentColor" fill-rule="evenodd" d="M12.83 3.03a6.93 6.93 0 1 0-9.8 9.8 6.93 6.93 0 0 0 9.8-9.8m-10.5-.7a7.93 7.93 0 0 1 11.29 11.13l4.63 4.63a.5.5 0 0 1-.71.7l-4.66-4.66A7.93 7.93 0 0 1 2.32 2.33" clip-rule="evenodd"/></svg>