<svg class="icon icon-accordion icon-apple" viewBox="0 0 20 20"><path d="M10.66 1.84A5.4 5.4 0 0 1 13.34.41a.5.5 0 0 1 .59.4 4.2 4.2 0 0 1-1.1 3.96 5.3 5.3 0 0 1-2.76 1.4.5.5 0 0 1-.57-.42 4.4 4.4 0 0 1 1.16-3.9m-.23 3.2a4 4 0 0 0 1.7-.99c.56-.56.97-1.36.88-2.53a4.4 4.4 0 0 0-1.64 1.02 3.2 3.2 0 0 0-.94 2.5"/><path d="M6.75 1.36a.5.5 0 0 1 .61-.34c1.07.3 3.06 1.67 3.14 4.66a.5.5 0 1 1-1 .03c-.06-2.48-1.69-3.52-2.41-3.73a.5.5 0 0 1-.35-.62"/><path d="M5.8 5.52c-.72.28-1.4.82-1.88 1.43a6.6 6.6 0 0 0-1.38 4.25 7.4 7.4 0 0 0 4.54 6.88c.33.14.68.13 1.14.05l.32-.05c.39-.07.85-.16 1.32-.16s.95.09 1.37.16l.37.06c.52.08.92.1 1.27-.06a7.4 7.4 0 0 0 4.6-6.87 8 8 0 0 0-.73-3.32 5 5 0 0 0-2.02-1.99 5 5 0 0 0-1.78-.46 2 2 0 0 0-.96.2l-.4.23-.07.04-.38.23c-.34.2-.74.35-1.27.35a2 2 0 0 1-1.34-.44l-.26-.22-.1-.1a2 2 0 0 0-.34-.22 2.4 2.4 0 0 0-2.02 0m-.38-.92a3.4 3.4 0 0 1 2.85.03 3 3 0 0 1 .7.5q.07.08.17.14c.16.13.34.23.72.23q.43-.01.78-.22l.4-.25.5-.28a3 3 0 0 1 1.43-.3 6 6 0 0 1 2.16.55l.03.01.03.02a6 6 0 0 1 2.44 2.4c.52 1.01.75 2.23.83 3.75v.03a8.4 8.4 0 0 1-5.2 7.8 3.3 3.3 0 0 1-1.81.13l-.47-.08a7 7 0 0 0-1.12-.13c-.38 0-.7.06-1.07.13l-.4.07a3 3 0 0 1-1.7-.11 8.4 8.4 0 0 1-5.15-7.81q0-2.88 1.6-4.87a6 6 0 0 1 2.28-1.74"/></svg>