<svg class="icon icon-accordion icon-serving-dish" viewBox="0 0 20 20"><path d="M10 7.23a7.65 7.65 0 0 0-7.56 7.74.5.5 0 0 1-1 0c0-4.82 3.82-8.74 8.56-8.74s8.56 3.92 8.56 8.74a.5.5 0 0 1-1 0c0-4.29-3.4-7.74-7.56-7.74"/><path d="M.47 14.99a.5.5 0 0 1 .5-.5h18.06a.5.5 0 1 1 0 1H.97a.5.5 0 0 1-.5-.5M6.1 9.9a.25.25 0 0 1-.12.34 3 3 0 0 0-1.54 2.45.25.25 0 1 1-.5-.03 3.5 3.5 0 0 1 1.83-2.88.25.25 0 0 1 .33.12"/><path fill-rule="evenodd" d="M10.49 5.05h-.98a1 1 0 0 0-1 1v.15h2.98v-.15a1 1 0 0 0-1-1m-.98-1a2 2 0 0 0-2 2V7.2h4.98V6.05a2 2 0 0 0-2-2z"/></svg>