<svg class="icon icon-accordion icon-bottle" viewBox="0 0 20 20"><path d="M13.14 3.03a.5.5 0 0 1 .4.81.7.7 0 0 0-.17.5 1 1 0 0 0 .09.37c1.14 1.98 1.57 4.81 1.65 5.98v8.09a.5.5 0 0 1-.5.5H5.4a.5.5 0 0 1-.5-.5v-8.04c-.06-.89.13-1.95.4-2.92.26-1 .6-1.94.89-2.62l.18-.37.05-.09.1-.26q.03-.11-.08-.32l-.14-.21-.11-.19a.5.5 0 0 1 .44-.74zm-.75 1H7.46q.08.25.05.58a2 2 0 0 1-.2.6l-.09.15-.11.22c-.27.65-.6 1.56-.85 2.5a9 9 0 0 0-.36 2.6v7.6h8.21v-7.54A15 15 0 0 0 12.6 5.2a2 2 0 0 1-.2-1.18"/><path d="M6.37 1.7a1 1 0 0 1 .99-.84h5.1a1 1 0 0 1 .98.75l.33 1.32a1 1 0 0 1-.97 1.24H6.85a.75.75 0 0 1-.74-.87zm6.1.16H7.36l-.21 1.31h5.65zm1.63 7.1-.04.01L14 9l-.04.02-.04.02-.04.02-.05.02-.04.02-.05.02-.04.02-.05.02-.05.02-.04.02-.05.02-.05.02-.05.02-.04.02-.05.02-.05.01-.05.02-.05.01-.05.02-.06.01-.05.02h-.05l-.05.02-.06.01-.05.01-.05.01h-.06l-.05.01-.06.01h-.11l-.05.01h-.28l-.05-.01h-.06L12 9.44l-.05-.01h-.06l-.05-.02h-.06l-.05-.02-.05-.01-.05-.02h-.05l-.05-.02-.05-.02-.05-.02-.05-.01-.05-.02-.05-.02-.05-.02-.04-.01-.05-.02-.05-.02-.04-.02-.05-.02-.04-.02-.05-.02-.04-.02-.05-.02-.04-.03-.04-.02-.05-.02-.04-.02-.04-.02-.04-.02-.24-.13-.04-.02-.04-.01-.04-.02-.04-.02-.04-.02-.03-.02-.04-.02-.04-.01-.03-.02-.04-.02-.04-.01-.03-.02-.03-.01-.04-.02h-.03l-.03-.02-.04-.01-.03-.01-.03-.01-.03-.01-.03-.01-.03-.01-.03-.01H9.5l-.03-.01-.03-.01H9.4l-.02-.01h-.06l-.02-.01h-.34l-.03.01H8.9l-.03.01-.03.01h-.03l-.03.02h-.03l-.03.01-.03.01-.03.01-.03.01-.03.02h-.03l-.04.02-.03.01-.04.02-.03.01-.04.02-.03.01-.04.02-.03.02-.04.01-.04.02-.03.02-.04.02-.04.02-.04.02-.04.02-.28.14-.05.02-.04.03-.04.02-.05.02-.04.02-.04.02-.05.02-.04.02-.05.02-.04.02-.05.02-.05.02-.04.02-.05.02-.05.02-.05.02-.05.02-.05.01-.05.02-.05.01-.05.02-.05.01-.05.02H6.6l-.06.02-.05.01-.05.01-.06.01h-.05l-.05.01h-.06l-.05.01h-.06l-.05.01h-.28l-.05-.01h-.06l-.05-.01h-.06l-.05-.02h-.05v-1.1l.03.02h.03l.03.02h.03l.03.01.03.01h.02l.03.01h.03l.03.01h.03l.02.01h.08l.03.01h.21l.02-.01h.06l.03-.01.02-.01h.03l.03-.01.03-.01h.03l.03-.02h.03l.03-.02h.03l.04-.02.03-.01.03-.02h.04l.03-.02.04-.02.03-.01.04-.02.03-.01.04-.02.03-.02.04-.02.04-.02.04-.01.04-.02.03-.02.04-.02.24-.13.05-.02.04-.02.04-.02.04-.02.05-.02.04-.02.05-.02.04-.03.05-.02.04-.02.05-.02.04-.02.05-.02.05-.02.04-.02.05-.01.05-.02.05-.02.05-.02.05-.01.05-.02.05-.01.05-.02.05-.01.06-.01.05-.02h.05l.06-.02h.05l.05-.01.06-.01h.05l.06-.01h.49l.06.01.05.01.05.01.06.01.05.01.05.01.06.01.05.02.05.01.05.02.05.01.05.02.05.01.05.02.05.02.04.02.05.01.05.02.04.02.05.02.05.02.04.02.05.02.04.02.04.03.05.02.04.02.04.02.05.02.04.02.04.02.24.13.04.02.04.02.04.01.04.02.04.02.03.02.04.02.04.01.03.02.04.02.03.01.04.02.03.01.04.02.03.01.03.01.04.01.03.02h.03l.03.02h.03l.03.01.03.01.03.01h.03l.03.01h.03l.02.01h.03l.03.01h.08l.02.01h.21l.03-.01h.05l.03-.01h.03l.03-.02h.03l.03-.01h.03l.03-.02h.03l.03-.02h.03l.03-.02.03-.01.04-.01.03-.02.03-.01.04-.02.03-.01.04-.02.04-.01.03-.02.04-.02.04-.02.03-.01.04-.02.04-.02.04-.02.04-.02.28-.14.04-.03.05-.02.04-.02.04-.02.05-.02.04-.02.04-.02.05-.03.04-.02.05-.02.05-.02-.07 1.23-.04.02z"/></svg>