<svg class="icon icon-accordion icon-question-mark" viewBox="0 0 20 20"><path d="M9.56 11.96a.37.37 0 0 1-.36-.37v-.13q-.02-.72.31-1.3a4 4 0 0 1 1.04-1.06q.61-.46.82-.81a1.4 1.4 0 0 0 .2-.8c0-.9-.65-1.54-1.56-1.54-.86 0-1.53.6-1.61 1.6a.4.4 0 0 1-.1.23.4.4 0 0 1-.27.12h-.47a.37.37 0 0 1-.36-.45 2.8 2.8 0 0 1 2.82-2.7 2.7 2.7 0 0 1 2.8 2.71v.01q0 .77-.37 1.4a4 4 0 0 1-1.1 1.14c-.42.3-.64.52-.77.74-.12.2-.17.42-.17.77v.07a.37.37 0 0 1-.37.37zm1.15 2.42c0 .47-.34.88-.84.88s-.85-.4-.85-.88.35-.87.85-.87.84.4.84.87"/><path d="M18.5 10a8.5 8.5 0 1 1-17 0 8.5 8.5 0 0 1 17 0M10 17.5a7.5 7.5 0 1 0 0-15 7.5 7.5 0 0 0 0 15"/></svg>