<svg class="icon icon-accordion icon-banana" viewBox="0 0 20 20"><path d="M9.59 2.05a.5.5 0 0 1 .39-.08l2.18.45a.5.5 0 0 1 .39.55l-.24 2.13.17.12.14.1c.33.22.77.56 1.07 1.21.33.73.61 1.58.89 2.43l.07.21c.3.94.62 1.87 1.02 2.7q.58 1.26 1.47 2c.6.48 1.34.78 2.33.77a.5.5 0 0 1 .5.59c-.1.5-.42 1.18-1.08 1.7a4 4 0 0 1-3 .65 5.5 5.5 0 0 1-3.88-2.27l-.06-.07c-.83 1.8-3.23 3.97-7.37 3.38a.5.5 0 0 1-.08-.98l.1-.02c.38-.11 1.2-.35 1.75-1.38a7 7 0 0 0 .42-1.8c.04-.5 0-.95-.04-1.49l-.02-.15c-.11-1.08-.25-2.46.09-5.02a4.1 4.1 0 0 1 2.26-3.04l.32-2.35a.5.5 0 0 1 .2-.34m1.7 12.06c-.77-1.55-1.26-3.73-1.24-6.74a.5.5 0 0 1 1 0c-.02 3.77.77 6.01 1.76 7.34a4.5 4.5 0 0 0 3.2 1.88h.02c1.12.14 1.83-.12 2.26-.46a2 2 0 0 0 .48-.53 4.4 4.4 0 0 1-2.24-.94 7 7 0 0 1-1.75-2.36 23 23 0 0 1-1.07-2.8l-.07-.2q-.4-1.32-.85-2.34a2 2 0 0 0-.72-.8l-.08-.06-.34-.25a1 1 0 0 1-.34-.64v-.07l.2-1.82-1.2-.25-.29 2.13a.5.5 0 0 1-.4.42c-.33.07-.76.36-1.13.82s-.62 1-.69 1.48c-.32 2.45-.2 3.74-.09 4.79l.02.15c.05.55.1 1.07.05 1.67s-.2 1.25-.5 2.09l-.02.06a4 4 0 0 1-.76 1.02c3.16-.23 4.61-2.48 4.78-3.58"/><path d="M6.27 11.8c.26-.5.33-.9.32-1.05l.99-.1c.05.44-.13 1.04-.42 1.61a5 5 0 0 1-1.43 1.7 17 17 0 0 1-2.33 1.52c2.16-.2 3.16-.68 3.54-.99l.62.78c-.77.62-2.63 1.32-6.55 1.32a.5.5 0 0 1-.22-.96l.23-.1c1.57-.73 2.6-1.2 4.1-2.36a4 4 0 0 0 1.15-1.37"/></svg>