<svg class="icon icon-snapchat" viewBox="0 0 20 20"><path fill="currentColor" fill-rule="evenodd" d="M17.39 15.4a5 5 0 0 1-1.11.44c-.08.23-.24.57-.6.81a2 2 0 0 1-.9.31l-.44.03h-.1c-.31.02-.62.04-.95.16l-.33.17-.14.08-.5.3a4.6 4.6 0 0 1-2.32.6 4.6 4.6 0 0 1-2.32-.6l-.5-.3-.13-.08-.34-.18a3 3 0 0 0-.96-.15h-.09l-.44-.03a2 2 0 0 1-.9-.31 1.6 1.6 0 0 1-.6-.81 5 5 0 0 1-1.1-.45 2 2 0 0 1-.64-.53 1.4 1.4 0 0 1-.2-1.3 1.5 1.5 0 0 1 .52-.73l.33-.2a4.2 4.2 0 0 0 2-1.83l-.19-.12L4 10.4a2.4 2.4 0 0 1-.77-.85 1.8 1.8 0 0 1-.1-1.47h.01a1.8 1.8 0 0 1 1.7-1.15h.07q0-.33.04-.68a4.6 4.6 0 0 1 1.18-2.89A5 5 0 0 1 7.92 2.1a5 5 0 0 1 2.11-.4 5 5 0 0 1 3.86 1.66 4.6 4.6 0 0 1 1.17 2.88l.03.68h.1c.51 0 1.34.24 1.67 1.13l.01.01a1.8 1.8 0 0 1-.09 1.48c-.2.4-.53.67-.79.85l-.4.27-.2.14c.22.45.75 1.22 1.99 1.82l.02.01q.1.05.32.2a1.45 1.45 0 0 1 .31 2.02 2 2 0 0 1-.62.54zm-3.32-5.27c.1-.09.33-.25.58-.41l.25-.17.09-.06.21-.14.02-.01.02-.02q.55-.36.4-.8c-.08-.22-.28-.3-.49-.3l-.19.02-.4.12-.18.07h-.01l-.06.02-.25.1-.1.02-.07.02q-.17 0-.16-.2v-.05l.02-.26.03-.79v-.03a10 10 0 0 0-.03-.94 3.3 3.3 0 0 0-.85-2.1A3.8 3.8 0 0 0 10 3a4 4 0 0 0-1.58.3q-.76.31-1.32.92a3.3 3.3 0 0 0-.85 2.1 10 10 0 0 0-.03 1.2v.25l.04.58v.05q.02.2-.15.2l-.08-.02-.09-.02-.25-.1-.05-.02-.08-.03-.12-.04-.45-.14h-.15c-.2 0-.4.07-.48.29-.12.3.04.56.4.8l.08.07.28.18.24.16c.24.16.48.32.57.4.17.17.16.3.14.45v.02c-.02.12-.31 1.5-1.93 2.65l-.51.32-.43.23c-.14.07-.39.22.04.46l.24.12q.38.15.66.23h.03l.17.05q.21.06.38.16c.16.1.18.28.2.44q.01.2.14.32.18.11.62.1c.38.02.87.04 1.44.23q.43.16.8.42a3.5 3.5 0 0 0 4.17 0q.37-.26.78-.42c.58-.19 1.08-.2 1.45-.22q.45 0 .62-.1.13-.12.13-.33c.03-.16.05-.33.21-.44q.17-.1.39-.16l.2-.06a4 4 0 0 0 .64-.22l.25-.12c.43-.24.18-.4.04-.47l-.42-.22h-.01l-.5-.33a4.4 4.4 0 0 1-1.93-2.65c-.03-.16-.05-.29.13-.46M3.63 15.38" clip-rule="evenodd"/></svg>