<svg class="icon icon-accordion icon-eye" viewBox="0 0 20 20"><path d="M9.52 4.8c-2.76.13-5.44 1.82-8.35 4.87a.5.5 0 0 0 0 .66c2.91 3.05 5.6 4.74 8.35 4.87s5.75-1.29 9.3-4.86a.5.5 0 0 0 0-.68c-3.55-3.57-6.55-4.99-9.3-4.86m-.05-1.04c3.18-.15 6.44 1.5 10.09 5.16a1.53 1.53 0 0 1 0 2.16c-3.65 3.66-6.9 5.31-10.08 5.16S3.39 14.16.42 11.06a1.53 1.53 0 0 1 0-2.12c2.97-3.1 5.89-5.03 9.06-5.18"/><path d="M13.58 10a3.56 3.56 0 0 1-3.57 3.56A3.56 3.56 0 0 1 6.44 10a3.56 3.56 0 0 1 3.57-3.56A3.56 3.56 0 0 1 13.58 10m-3.57 2.52A2.5 2.5 0 0 0 12.54 10a2.5 2.5 0 0 0-2.53-2.52A2.5 2.5 0 0 0 7.48 10a2.5 2.5 0 0 0 2.53 2.52"/></svg>