<svg fill="none" class="icon icon-share" viewBox="0 0 13 12"><path stroke="currentColor" stroke-linecap="round" stroke-linejoin="round" d="M1.63 8.13v2.16a1.1 1.1 0 0 0 1.08 1.09h7.58a1.1 1.1 0 0 0 1.09-1.09V8.13"/><path fill="currentColor" fill-rule="evenodd" d="M6.15 1.27a.5.5 0 0 1 .7 0l2.71 2.71a.5.5 0 0 1-.7.7L6.5 2.34 4.15 4.7a.5.5 0 1 1-.71-.71z" clip-rule="evenodd"/><path fill="currentColor" fill-rule="evenodd" d="M6.5 1.13a.5.5 0 0 1 .5.5v6.5a.5.5 0 0 1-1 0v-6.5a.5.5 0 0 1 .5-.5" clip-rule="evenodd"/></svg>