<svg class="icon icon-accordion icon-price-tag" viewBox="0 0 20 20"><path fill-rule="evenodd" d="m1.16 11.84 6.93 6.99c.2.2.52.2.72 0L18.84 8.69a.5.5 0 0 0 .15-.36v-6.8a.5.5 0 0 0-.51-.5h-7.1a.5.5 0 0 0-.35.14l-9.87 9.95a.5.5 0 0 0 0 .72M20 1.54C20 .68 19.32 0 18.48 0h-7.1q-.62 0-1.07.45L.45 10.4a1.54 1.54 0 0 0 0 2.16l6.93 7a1.5 1.5 0 0 0 2.15-.01L19.56 9.41A1.5 1.5 0 0 0 20 8.32z"/><path d="M15.9 8.23a2.86 2.86 0 0 1-4.06 0 2.9 2.9 0 0 1 0-4.1 2.86 2.86 0 0 1 4.06 0 2.9 2.9 0 0 1 0 4.1m-3.35-.72a1.85 1.85 0 0 0 2.64 0 1.9 1.9 0 0 0 0-2.66 1.85 1.85 0 0 0-2.64 0 1.9 1.9 0 0 0 0 2.66"/></svg>