<svg class="icon icon-accordion icon-pants" viewBox="0 0 20 20"><path d="M5.39 1.1a.57.57 0 0 0-.57.57V3.8L2.59 17.55a.57.57 0 0 0 .45.66l3.98.7a1 1 0 0 0 .47-.1.6.6 0 0 0 .22-.36l1.51-8.9c.16-.91 1.44-.91 1.6 0l1.5 8.83a.56.56 0 0 0 .55.47h.1l3.97-.7a.6.6 0 0 0 .37-.23.6.6 0 0 0 .1-.44l-2.23-13.8-.04-.35-.02-.19V1.67a.57.57 0 0 0-.57-.58zm-1.65.57A1.66 1.66 0 0 1 5.4 0h9.16c.9 0 1.65.75 1.65 1.67v1.58l2.28 14.06c.07.43-.03.87-.28 1.23a1.7 1.7 0 0 1-1.06.69l-3.99.7-.27.01a1.64 1.64 0 0 1-1.62-1.38l-1.24-7.27-1.25 7.33a1.7 1.7 0 0 1-.67 1.08l-.02.02-.03.02a2 2 0 0 1-.93.26l-.27-.02-3.98-.7a1.66 1.66 0 0 1-1.34-1.93l2.2-13.64z"/><path d="M15.18 3.69H4.82v-.55h10.3z"/></svg>