<svg class="icon icon-accordion icon-dairy-free" viewBox="0 0 20 20"><path d="M6.2 12.92 2.46 15.5l-.57-.83 3.74-2.58zm11.2-7.66-3.1 2.06-.55-.83 3.1-2.06z"/><path d="m5.16 12.8-.17-.24.82-.57.17.24z"/><path fill-rule="evenodd" d="M9.94 18.5a8.5 8.5 0 1 0 0-17 8.5 8.5 0 0 0 0 17m0 1a9.5 9.5 0 1 0 0-19 9.5 9.5 0 0 0 0 19"/><path d="m7.72 4.91-1.5 2.28a.5.5 0 1 1-.83-.55l1.5-2.28zm5.99.27-1.17 2.17-.88-.47 1.17-2.18z"/><path d="m13.43 4.63 1.22 1.97a1 1 0 0 1 .15.53v6.9a1 1 0 0 1-.3.72l-1.65 1.6a1 1 0 0 1-.7.29h-1.43v-1h1.43l1.65-1.61v-6.9l-1.22-1.97z"/><path d="M5.28 6.96a.5.5 0 0 1 .5-.5h6.86v9.18a1 1 0 0 1-1 1H6.28a1 1 0 0 1-1-1zm1 .5v8.18h5.36V7.46zM6.5 3.5a1 1 0 0 1 1-1h5a1 1 0 0 1 1 1v1.35h-1V3.5h-5V5h-1z"/><path d="M13.4 5.02H6.97v-1h6.45z"/></svg>