<svg class="icon icon-accordion icon-carrot" viewBox="0 0 20 20"><path d="M13.2 3.2c.87.25 1.6.8 2.18 1.38a4.7 4.7 0 0 1 1.43 2.6c.14.87-.05 1.7-.43 2.42a5 5 0 0 1-1.92 1.89L2.63 19.16a1.19 1.19 0 0 1-1.65-1.63L8.6 5.49c.4-.65.92-1.36 1.67-1.82a3.6 3.6 0 0 1 2.92-.47m-.27.96a2.6 2.6 0 0 0-2.13.36 5 5 0 0 0-1.35 1.5L1.82 18.08a.19.19 0 0 0 .26.25l11.84-7.67c.68-.45 1.26-.9 1.57-1.51q.46-.87.33-1.81a3.7 3.7 0 0 0-1.15-2.04 4 4 0 0 0-1.74-1.13"/><path d="M10.77 12.87a.25.25 0 0 1-.36.01l-1.5-1.39a.25.25 0 0 1 .34-.37l1.5 1.4a.25.25 0 0 1 .02.35m.39-4.45a.25.25 0 0 1-.35.02l-2.3-2.1a.25.25 0 1 1 .34-.37l2.3 2.1a.25.25 0 0 1 .01.35m5.33-5.39a.25.25 0 0 1 0 .35l-1.37 1.37a.25.25 0 1 1-.35-.35l1.36-1.37a.25.25 0 0 1 .36 0M6.25 14.6a.25.25 0 0 1-.35.01l-1.51-1.39a.25.25 0 1 1 .34-.37l1.5 1.4a.25.25 0 0 1 .02.35"/><path d="M15.15 1.8q-.5.55-.94.78a2 2 0 0 1-.9.18h-.81c-.7.06-1.05.7-1.05 1.18l-1 .02c-.01-.85.6-2.1 2-2.2h.89q.26.01.42-.07c.15-.08.35-.24.66-.58l.02-.02.02-.02a2.4 2.4 0 0 1 1.61-.65c.66-.01 1.37.25 2.05.87.3.28.75.74.94 1.37.2.66.1 1.43-.53 2.22l-.02.03-.02.02a1 1 0 0 0-.28.36c-.04.12-.08.33-.04.74l.1.77c.07.43-.08.95-.37 1.38-.3.44-.78.83-1.44.95l-.2-.98c.38-.07.64-.28.82-.54s.23-.54.2-.68l-.1-.79a3 3 0 0 1 .1-1.2q.19-.46.49-.7c.43-.55.43-.97.34-1.29a2 2 0 0 0-.66-.92c-.53-.47-1-.62-1.36-.6a1.4 1.4 0 0 0-.94.36"/></svg>