<svg aria-hidden="true" class="icon icon-accordion icon-clipboard" viewBox="0 0 20 20"><path d="M6.31 9.14a.25.25 0 0 1 .25-.25h7.19a.25.25 0 0 1 0 .5H6.56a.25.25 0 0 1-.25-.25m0 4.91a.25.25 0 0 1 .25-.25h6.88a.25.25 0 0 1 0 .5H6.56a.25.25 0 0 1-.25-.25m.62-2.45a.25.25 0 0 1 .25-.25h5.64a.25.25 0 1 1 0 .5H7.18a.25.25 0 0 1-.25-.25M5.2 1.78A1.5 1.5 0 0 1 6.7.28h6.6a1.5 1.5 0 0 1 1.5 1.5v1.69a1.5 1.5 0 0 1-1.5 1.5H6.7a1.5 1.5 0 0 1-1.5-1.5zm1.5-.5a.5.5 0 0 0-.5.5v1.69a.5.5 0 0 0 .5.5h6.6a.5.5 0 0 0 .5-.5v-1.7a.5.5 0 0 0-.5-.5z"/><path d="M3.74 2.5v16.22h12.52V2.51H14.5v-1h1.76a1 1 0 0 1 1 1v16.21a1 1 0 0 1-1 1H3.74a1 1 0 0 1-1-1V2.51a1 1 0 0 1 1-1h2.02v1z"/></svg>