<svg class="icon icon-accordion icon-nut-free" viewBox="0 0 20 20"><path d="M8.38 11.59 2.52 15.5l-.56-.83 5.87-3.92zm9.32-6.5L11.83 9l-.55-.83 5.86-3.92z"/><path d="M6.13 9.34c.68.7 1.53 1.12 2.16 1.25a.5.5 0 0 1 .3.2l.69.94c.18.28.35.6.67 1.24a2.8 2.8 0 0 0 1.9 1.47q.93.2 1.55.2.61-.01.89-.2c.35-.2.63-.68.63-1.9a3.7 3.7 0 0 0-.83-2.28 3 3 0 0 0-1.56-1.07c-1.13-.22-1.75-.91-1.93-1.34a9 9 0 0 0-1.54-2.23 3 3 0 0 0-1.64-.71c-1.12-.2-1.62-.03-1.87.2-.26.24-.4.68-.46 1.46a3.5 3.5 0 0 0 1.04 2.77m-.71.7A4.5 4.5 0 0 1 4.09 6.5c.06-.79.2-1.6.79-2.13.6-.55 1.5-.66 2.71-.45.74.13 1.33.32 2.1.91v.02a10 10 0 0 1 1.82 2.6c.06.12.4.6 1.22.76.75.15 1.55.68 2.14 1.42a4.7 4.7 0 0 1 1.05 2.92c0 1.28-.28 2.27-1.12 2.76q-.61.33-1.4.32c-.79 0-1.1-.08-1.76-.22h-.02a3.8 3.8 0 0 1-2.56-2c-.32-.63-.47-.9-.62-1.13l-.32-.44-.24-.32a5.6 5.6 0 0 1-2.46-1.48"/><path fill-rule="evenodd" d="M10 18.5a8.5 8.5 0 1 0 0-17 8.5 8.5 0 0 0 0 17m0 1a9.5 9.5 0 1 0 0-19 9.5 9.5 0 0 0 0 19"/></svg>