<svg class="icon icon-accordion icon-leather" viewBox="0 0 20 20"><path d="M7.98 1.56a.5.5 0 0 0-.49.39 8 8 0 0 1-.27.9c-.12.31-.3.65-.56.92-.71.72-1.72.81-2.5.81q-.44 0-.86-.1l-.21-.06-.15-.03-.24.06a.5.5 0 0 0-.25.3l-.37 1.21a.5.5 0 0 0 .33.64 4.28 4.28 0 0 1 1.72 7.1 4 4 0 0 1-1.47.95.5.5 0 0 0-.29.63l.55 1.79a.5.5 0 0 0 .32.32h-.02.03-.01q.12.04.17.03.14 0 .3-.1.44-.3.9-.49h.01q.73-.29 1.52-.28c.97 0 1.92.34 2.66.94l.02.02q.14.11.29.27v-.01.01q.24.22.4.46l.02.01h-.01q.16.19.4.2v1.05c-.5 0-.95-.23-1.25-.62v-.02a2 2 0 0 0-.29-.32l-.01-.01-.25-.23h.01-.02.01a3.2 3.2 0 0 0-1.98-.7q-.6 0-1.13.21a4 4 0 0 0-.7.37 1.6 1.6 0 0 1-.9.3q-.27-.01-.47-.07h-.01l-.02-.01a1.6 1.6 0 0 1-1-1v-.02l-.55-1.8c-.23-.77.15-1.61.92-1.91a3 3 0 0 0 1.1-.72 3.23 3.23 0 0 0-1.3-5.35 1.57 1.57 0 0 1-1.01-1.94l.37-1.23q.2-.62.78-.92a2 2 0 0 1 .72-.17q.27 0 .47.07h.02l.02.02h.01l.05.01h.02q.32.08.62.08c.77 0 1.37-.1 1.75-.49q.18-.18.33-.56.14-.38.23-.78A1.56 1.56 0 0 1 7.99.5h3.63c.72 0 1.34.5 1.51 1.2q.09.39.24.76.16.39.34.57a2.5 2.5 0 0 0 1.75.65l.35-.02a3 3 0 0 0 .61-.18 1.5 1.5 0 0 1 1.29 0q.61.28.84.96l.39 1.16c.12.42.08.87-.14 1.25s-.6.64-1.01.73h-.01a4 4 0 0 0-.63.2q-.57.26-1.03.71a3.4 3.4 0 0 0-1 2.39 3.4 3.4 0 0 0 2.31 3.2c.76.25 1.36 1.1 1.1 1.97l-.45 1.45a1.6 1.6 0 0 1-1.02 1.03 2 2 0 0 1-.47.07 1.6 1.6 0 0 1-.97-.33 3 3 0 0 0-.67-.4 3 3 0 0 0-1.27-.27c-.72 0-1.41.24-1.97.7h.01-.01l-.25.23v-.01l-.02.02.02-.01-.28.32v.01c-.29.41-.76.64-1.25.64v-1.06q.26-.02.37-.18h.01q.18-.26.4-.49h.02l.3-.27a4 4 0 0 1 2.65-.96q.89 0 1.7.36.47.21.9.54a.5.5 0 0 0 .3.1l.16-.02a.5.5 0 0 0 .33-.34l.45-1.44c.06-.2-.1-.55-.42-.65A4.5 4.5 0 0 1 15.36 14a4.4 4.4 0 0 1-1.3-3.13c0-1.19.47-2.3 1.3-3.13a5 5 0 0 1 1.36-.94h.03a5 5 0 0 1 .8-.26.5.5 0 0 0 .32-.23.5.5 0 0 0 .05-.4V5.9v.01l-.4-1.15v-.02a.5.5 0 0 0-.27-.3.5.5 0 0 0-.4 0 4 4 0 0 1-.89.26q-.26.04-.52.04c-.87 0-1.83-.3-2.5-.97-.26-.26-.44-.6-.56-.91a6 6 0 0 1-.29-.91.5.5 0 0 0-.48-.4z"/></svg>