<svg fill="none" viewBox="0 0 15 14"><path fill="currentColor" fill-opacity=".75" fill-rule="evenodd" d="M14.5 7a7 7 0 1 1-14 0 7 7 0 0 1 14 0m-7 6.17A6.17 6.17 0 1 0 7.5.83a6.17 6.17 0 0 0 0 12.34" clip-rule="evenodd"/><path fill="currentColor" fill-opacity=".75" fill-rule="evenodd" d="M8.2 3.55c0-.39-.28-.72-.7-.72a.7.7 0 0 0-.7.72.7.7 0 1 0 1.4 0" clip-rule="evenodd"/><path fill="currentColor" fill-opacity=".75" d="M6.97 5.72a.33.33 0 0 1 .33-.33h.4a.33.33 0 0 1 .33.33v5.13a.33.33 0 0 1-.33.33h-.4a.33.33 0 0 1-.33-.33z"/></svg>