<svg class="icon icon-accordion icon-snowflake" viewBox="0 0 20 20"><path d="M10 .5a.5.5 0 0 1 .5.5v1.86l1.89-1.15a.5.5 0 0 1 .67.17.5.5 0 0 1-.17.7l-2.2 1.33-.19.3v4.9l4.23-2.6.02-.04.17-2.77a.5.5 0 0 1 .53-.47.5.5 0 0 1 .46.54l-.13 2.09 1.71-1.06a.5.5 0 0 1 .68.17.5.5 0 0 1-.17.7l-1.83 1.12 2.01 1.22c.24.14.31.45.18.69a.5.5 0 0 1-.68.18l-2.17-1.31-.54-.04-4 2.46 4.15 2.46h.24l2.42-1.23a.5.5 0 0 1 .66.23.5.5 0 0 1-.22.68l-1.96 1 1.8 1.06c.25.15.33.46.2.7a.5.5 0 0 1-.68.18L15.79 14v2.26a.5.5 0 0 1-.5.5.5.5 0 0 1-.5-.5l.01-2.6-.16-.34-4.14-2.45v4.92l.19.29 2.2 1.33a.5.5 0 0 1 .17.7.5.5 0 0 1-.67.17l-1.89-1.15V19a.5.5 0 0 1-1 0v-1.88l-1.81 1.24a.5.5 0 0 1-.68-.14.5.5 0 0 1 .14-.7L9.38 16l.12-.21v-4.9l-4.22 2.6-.08.18v2.6a.5.5 0 0 1-.49.5.5.5 0 0 1-.5-.5v-2.12L2.5 15.2a.5.5 0 0 1-.68-.17.5.5 0 0 1 .17-.7l1.86-1.14-2.08-1.06a.5.5 0 0 1-.22-.68.5.5 0 0 1 .66-.23l2.42 1.23h.42l3.97-2.44-4.16-2.47-.38.03-2.17 1.31a.5.5 0 0 1-.68-.18.5.5 0 0 1 .17-.7l1.9-1.14L1.93 5.8a.5.5 0 0 1-.18-.68.5.5 0 0 1 .67-.19L4.22 6 4.1 3.77a.5.5 0 0 1 .46-.54.5.5 0 0 1 .53.47l.17 2.77.12.2L9.5 9.13v-4.9L9.38 4 7.14 2.47a.5.5 0 0 1-.14-.7.5.5 0 0 1 .69-.14L9.5 2.88V1a.5.5 0 0 1 .5-.5"/></svg>