<svg class="icon icon-accordion icon-fire" viewBox="0 0 20 20"><path d="m10.29.2-.27.42L9.73.2a.5.5 0 0 1 .56 0m-.27 1.02-.05.05a31 31 0 0 0-3.61 3.1A18 18 0 0 0 3.68 7.7a7 7 0 0 0-1.19 3.56c0 4.81 3.9 7.53 7.38 7.62a7.57 7.57 0 0 0 7.64-7.7c0-1.23-.46-2.47-1.18-3.66a17 17 0 0 0-2.67-3.28 29 29 0 0 0-3.59-2.98zM17.2 7a8 8 0 0 1 1.32 4.17 8.57 8.57 0 0 1-8.67 8.71 8.55 8.55 0 0 1-8.35-8.61 8 8 0 0 1 1.33-4.1 20 20 0 0 1 2.83-3.5A32 32 0 0 1 9.71.21L9.73.2l.29.4.27-.42.03.02.33.23a30 30 0 0 1 3.71 3.09A18 18 0 0 1 17.2 7"/><path d="m10.3 6.54-.29.4-.3-.4a.5.5 0 0 1 .59 0m-.28 1.04a20 20 0 0 0-2.09 1.96c-.6.65-1.18 1.4-1.62 2.17-.43.78-.7 1.56-.7 2.3 0 3.13 2.15 4.88 4.3 4.88 2.18 0 4.48-1.68 4.48-4.95 0-1.57-1.1-3.2-2.3-4.49a18 18 0 0 0-2.07-1.87m2.8 1.2c1.23 1.3 2.57 3.18 2.57 5.16 0 3.84-2.77 5.94-5.48 5.94-2.73 0-5.3-2.21-5.3-5.88 0-.96.35-1.91.83-2.78a14 14 0 0 1 1.75-2.36A21 21 0 0 1 9.65 6.6l.04-.03.02-.01.3.4.29-.41.02.01.04.03.16.12a19 19 0 0 1 2.3 2.07"/></svg>