<svg class="icon icon-accordion icon-paw-print" viewBox="0 0 20 20"><path d="M4.34 7.16c-.32-.53-.75-.79-1.12-.77-.49.04-.76.2-.92.36q-.24.26-.26.71a2.3 2.3 0 0 0 .77 1.72c.29.23.75.36 1.15.31a.8.8 0 0 0 .73-.64 2.4 2.4 0 0 0-.35-1.69m.86-.52c.42.7.65 1.62.46 2.43-.2.9-.87 1.33-1.58 1.42a2.6 2.6 0 0 1-1.9-.53 3.3 3.3 0 0 1-1.14-2.53c.02-.48.17-.97.53-1.36q.56-.6 1.58-.67c.9-.06 1.62.55 2.05 1.24m1.95-4.96a.54.54 0 0 0-.65.28 4 4 0 0 0-.32 2.15c.17 1.24 1.08 1.6 1.52 1.54.17-.02.42-.17.61-.5.18-.31.28-.75.16-1.25a6 6 0 0 0-.51-1.4q-.37-.64-.81-.82M5.6 1.51A1.54 1.54 0 0 1 7.5.75c.61.23 1.04.74 1.33 1.26.3.53.5 1.14.62 1.66.17.76.04 1.45-.27 1.98-.3.51-.79.91-1.33 1-1.05.14-2.42-.66-2.66-2.4-.12-.93.04-2.01.41-2.74m7.09.3a1.7 1.7 0 0 0-.84.95A2.2 2.2 0 0 0 12 4.78q.3.44.51.54a.5.5 0 0 0 .36.07c.25-.04.53-.26.73-.52l.1-.18.05-.1.32-.73q.16-.42.14-.77a2 2 0 0 0-.64-1.2q-.36-.33-.88-.09m-.43-.9c.62-.3 1.4-.3 2 .27.53.5.91 1.23.95 1.86.03.42-.07.82-.2 1.17a9 9 0 0 1-.4.92q-.07.17-.21.36c-.28.35-.75.8-1.37.9a1.5 1.5 0 0 1-1-.18q-.48-.27-.88-.89c-.63-1-.54-2.05-.24-2.89.24-.67.75-1.24 1.36-1.52m5.41 5.15a.7.7 0 0 0-.71-.05c-.47.2-.97.58-1.14 1.18-.19.62-.13 1.04 0 1.29q.2.36.53.37.53.08 1-.14c.27-.15.6-.48.75-1.27.09-.4.04-.7-.04-.9a1 1 0 0 0-.39-.48m-1.1-.97a1.7 1.7 0 0 1 1.68.15q.45.3.73.91t.1 1.5c-.2 1-.66 1.61-1.25 1.93-.57.31-1.17.3-1.57.27a1.7 1.7 0 0 1-1.33-.92 2.7 2.7 0 0 1-.07-2.02 3 3 0 0 1 1.72-1.82m-6.36 10.45 1.22 1.23a2.64 2.64 0 1 0 3.73-3.74l-4.95-4.96-4.96 4.96A2.64 2.64 0 0 0 9 16.76zm.7-8.18 4.96 4.96a3.64 3.64 0 1 1-5.15 5.15l-.51-.51-.52.51a3.64 3.64 0 0 1-5.15-5.15l4.96-4.96a1 1 0 0 1 1.41 0"/></svg>