<svg class="icon icon-accordion icon-ruler" viewBox="0 0 20 20"><path fill-rule="evenodd" d="m18.98 5.33-4.31-4.31L1.02 14.67l4.31 4.31zM15.4.3a1 1 0 0 0-1.44 0L.3 13.95a1 1 0 0 0 0 1.44l4.3 4.31c.4.4 1.04.4 1.44 0L19.7 6.05a1 1 0 0 0 0-1.44z"/><path d="M11.79 2.67a.5.5 0 0 1 .72 0l1.91 1.92a.5.5 0 1 1-.72.72l-1.9-1.92a.5.5 0 0 1 0-.72m-2.85 2.7a.5.5 0 0 1 .72 0l1.92 1.91a.5.5 0 1 1-.72.72L8.94 6.08a.5.5 0 0 1 0-.72m-2.7 2.85a.5.5 0 0 1 .72 0l1.92 1.92a.5.5 0 0 1-.72.71l-1.92-1.9a.5.5 0 0 1 0-.72m-2.87 2.67a.5.5 0 0 1 .72 0l1.92 1.92a.5.5 0 0 1-.72.71L3.37 11.6a.5.5 0 0 1 0-.72"/></svg>