<svg class="icon icon-accordion icon-plane" viewBox="0 0 20 20"><path d="m16.41 2.08-.08.05-.55.4c-.94.7-2.18 1.74-3.5 2.97a.5.5 0 0 1-.45.12L3.7 3.8l-.15-.01a.6.6 0 0 0-.51.33.56.56 0 0 0 .2.68h.01l5.36 3.5a.5.5 0 0 1 .09.77l-.03.03a44 44 0 0 0-3.08 3.61l-.31.44a.5.5 0 0 1-.53.22L2.2 12.8h-.15a.6.6 0 0 0-.5.32.6.6 0 0 0 .16.66l3 1.1a.5.5 0 0 1 .3.3l1.22 3.1a.5.5 0 0 0 .48.22l.14-.09a.56.56 0 0 0 .33-.63L6.6 15.2a.5.5 0 0 1 .22-.53l.22-.15.22-.16a42 42 0 0 0 3.62-3.07l.02-.03a.5.5 0 0 1 .78.08l3.5 5.37a.5.5 0 0 0 .46.25.56.56 0 0 0 .54-.68l-1.81-8.15a.5.5 0 0 1 .12-.44 43 43 0 0 0 2.96-3.49l.4-.55.05-.08c.19-.29.42-.65.53-1.02.1-.36.08-.63-.15-.86a.7.7 0 0 0-.52-.2c-.28 0-.66.12-1.36.58M11.17 12.4a41 41 0 0 1-3.31 2.78h-.02l-.16.13-.02.01.5 2.25a1.56 1.56 0 0 1-.84 1.72c-.22.18-.5.21-.65.21-.5 0-1-.25-1.3-.72l-.05-.08-1.17-2.95-2.84-1.05-.1-.05a1.56 1.56 0 0 1-.6-1.9v-.01a1.55 1.55 0 0 1 1.7-.93h.04l.04.01 2.25.5.14-.19c.69-.93 1.65-2.07 2.79-3.32L2.7 5.65a1.56 1.56 0 0 1-.6-1.9 1.55 1.55 0 0 1 1.7-.93h.08l7.92 1.76a46 46 0 0 1 3.38-2.85l.67-.48C16.6.75 17.19.5 17.78.5c.46 0 .9.17 1.23.5.58.57.57 1.28.4 1.84-.15.53-.46 1-.64 1.27l-.02.03-.05.08-.43.59c-.69.94-1.7 2.12-2.85 3.37l1.76 7.9a1.56 1.56 0 0 1-.92 1.77 2 2 0 0 1-.6.12 1.5 1.5 0 0 1-1.3-.71z"/></svg>