<svg class="icon icon-accordion icon-gluten_free" viewBox="0 0 20 20"><path d="m7.07 12.35-4.55 3.16-.57-.83 4.55-3.15zm10.45-7.03-4.55 3.16-.57-.82 4.55-3.16zM9.5 16.51V7.49a.5.5 0 0 1 1 0v9.02a.5.5 0 0 1-1 0m2.15-10.34a3.9 3.9 0 0 0-1.23-3.81.5.5 0 0 0-.7.04C8.51 3.75 8.24 5.06 8.47 6.16l.98-.2c-.14-.66-.05-1.5.67-2.47.43.55.8 1.42.56 2.45z"/><path d="M9.24 5.58a4 4 0 0 0-2.14-.93.5.5 0 0 0-.55.43c-.18 1.3-.01 2.4.47 3.18l.85-.52a3.5 3.5 0 0 1-.39-2 2.76 2.76 0 0 1 2.03 2.81h1c0-1.39-.55-2.35-1.27-2.97"/><path d="M10.78 5.77a4 4 0 0 1 2.14-.93.5.5 0 0 1 .55.43c.18 1.3 0 2.4-.47 3.18l-.86-.52c.27-.44.44-1.1.4-2a3 3 0 0 0-1.11.6c-.5.43-.93 1.12-.93 2.22h-1c0-1.4.55-2.36 1.28-2.98"/><path d="M11.13 8.04a4 4 0 0 1 2.24-.67.5.5 0 0 1 .5.49 4.8 4.8 0 0 1-.85 3.1l-.79-.62c.32-.4.57-1.04.62-1.93a3 3 0 0 0-1.16.46c-.56.37-1.06 1-1.19 2.1l-.99-.12c.17-1.4.83-2.28 1.62-2.81"/><path d="M8.78 8.02a4 4 0 0 0-2.25-.59.5.5 0 0 0-.48.51c.02 1.31.36 2.37.96 3.07l.76-.65c-.33-.4-.6-1.02-.7-1.9q.59.06 1.2.4a2.8 2.8 0 0 1 1.25 2.06l1-.16a3.8 3.8 0 0 0-1.74-2.74"/><path d="M10.45 12.18a3.9 3.9 0 0 0-4.22-1.86.5.5 0 0 0-.38.58c.26 1.3.83 2.18 1.53 2.74s1.48.78 2.16.82l.07-1a3 3 0 0 1-1.6-.6c-.42-.33-.8-.84-1.04-1.63a2.9 2.9 0 0 1 2.62 1.46z"/><path d="M9.5 12.18a3.9 3.9 0 0 1 4.22-1.86.5.5 0 0 1 .38.58 4.6 4.6 0 0 1-1.5 2.75 3.7 3.7 0 0 1-2.14.83l-.06-1a2.7 2.7 0 0 0 1.57-.6c.4-.33.78-.85 1.02-1.65a2.9 2.9 0 0 0-2.62 1.46z"/><path fill-rule="evenodd" d="M10 18.5a8.5 8.5 0 1 0 0-17 8.5 8.5 0 0 0 0 17m0 1a9.5 9.5 0 1 0 0-19 9.5 9.5 0 0 0 0 19"/></svg>