<svg class="icon icon-error" viewBox="0 0 13 13"><circle cx="6.5" cy="6.5" r="5.5" stroke="#fff" stroke-width="2"/><circle cx="6.5" cy="6.5" r="5.5" fill="#eb001b" stroke="#eb001b" stroke-width=".7"/><path fill="#fff" d="m5.87 3.53.1 4.04h1.06l.1-4.04zm.63 6.13c.38 0 .68-.29.68-.66s-.3-.65-.68-.65-.68.29-.68.65.3.66.68.66"/><path fill="#fff" stroke="#eb001b" stroke-width=".7" d="M5.87 3.18h-.36l.01.36.1 4.04.01.34h1.74v-.34l.1-4.04.02-.36zM6.5 10c.56 0 1.03-.43 1.03-1S7.06 8 6.5 8s-1.03.43-1.03 1 .47 1.01 1.03 1.01Z"/></svg>