<svg class="icon icon-pinterest" viewBox="0 0 20 20"><path fill="currentColor" d="M10 2.01a8 8 0 0 1 5.67 2.35 8.1 8.1 0 0 1 1.27 9.68 8 8 0 0 1-6.94 4 8 8 0 0 1-2.28-.3q.6-1 .82-1.74l.57-2.2q.2.4.77.7.56.3 1.19.3 1.25 0 2.24-.72a4.7 4.7 0 0 0 1.54-1.97 7 7 0 0 0 .54-2.8q0-1.87-1.43-3.24A5 5 0 0 0 10.3 4.7q-1.35 0-2.48.46a5 5 0 0 0-3.24 4.55q0 1.09.42 1.9.4.81 1.22 1.16.15.06.25 0t.14-.2l.17-.65q.08-.21-.1-.43a2.3 2.3 0 0 1-.55-1.57 3.8 3.8 0 0 1 3.98-3.86q1.56.01 2.44.86t.88 2.23a7 7 0 0 1-.32 2.12 4 4 0 0 1-.9 1.55q-.57.58-1.34.58-.62 0-1.01-.45-.4-.46-.25-1.08l.45-1.54.17-.7q.09-.37.09-.63 0-.52-.27-.85a1 1 0 0 0-.8-.34q-.65 0-1.08.6-.45.6-.45 1.5 0 .56.18 1.1l.05.14q-.85 3.72-1.03 4.36a7 7 0 0 0-.13 1.87A8.1 8.1 0 0 1 2 10.03q0-3.31 2.34-5.67A7.7 7.7 0 0 1 10 2z"/></svg>