<svg class="icon icon-accordion icon-iron" viewBox="0 0 20 20"><path fill-rule="evenodd" d="M7.07 2a.5.5 0 0 1 .5-.5h11.3A1.13 1.13 0 0 1 20 2.64h-1q-.01-.14-.13-.14H7.57a.5.5 0 0 1-.5-.5M.05 16.29v.03a1.8 1.8 0 0 0 .32 1.5c.33.43.84.68 1.39.68h16.48c.98 0 1.76-.81 1.76-1.78V2.64h-1v5.14h-6.65c-4.95 0-8.1 1.65-9.97 3.97a12 12 0 0 0-1.83 3.08 12 12 0 0 0-.49 1.41v.04zM19 8.79h-6.65c-4.71 0-7.55 1.55-9.2 3.59a12 12 0 0 0-1.67 2.82 11 11 0 0 0-.35.95l-.1.36-.01.03a.8.8 0 0 0 .14.67q.23.28.6.29h16.48a.8.8 0 0 0 .76-.78z"/><path d="M8.79 14.36c-.4 0-.7.3-.7.7s.3.69.7.69.7-.3.7-.7a.7.7 0 0 0-.7-.7m2.83 0c-.4 0-.7.3-.7.7s.3.7.7.7.7-.3.7-.7a.7.7 0 0 0-.7-.7m2.83 0c-.4 0-.7.3-.7.7s.3.7.7.7.7-.3.7-.7-.3-.7-.7-.7"/></svg>