<svg class="icon icon-accordion icon-star" viewBox="0 0 20 20"><path fill-rule="evenodd" d="m10 2.63-1.46 4.7c-.2.63-.74 1.05-1.36 1.05H2.44l3.82 2.9a1.55 1.55 0 0 1 .53 1.7l-1.46 4.7 3.82-2.9a1.4 1.4 0 0 1 1.68 0l3.82 2.9-1.45-4.7c-.2-.63.01-1.3.52-1.7l3.82-2.9h-4.73c-.62 0-1.17-.42-1.36-1.04zm.46-1.78a.47.47 0 0 0-.92 0l-1.9 6.18a.5.5 0 0 1-.45.34H.97c-.46 0-.66.63-.28.91L5.7 12.1a.5.5 0 0 1 .17.56l-1.91 6.18c-.14.46.36.85.74.56l5-3.82a.5.5 0 0 1 .57 0l5.01 3.82c.38.29.88-.1.74-.56l-1.91-6.18a.5.5 0 0 1 .17-.56l5.01-3.82c.38-.28.18-.9-.28-.9h-6.2a.5.5 0 0 1-.45-.35z"/></svg>